<svg xmlns="http://www.w3.org/2000/svg" width="52.511" height="53.813" viewBox="0 0 52.511 53.813"><g id="Gruppe_181" data-name="Gruppe 181" transform="translate(-3.8 -2.5)"><path id="Pfad_524" data-name="Pfad 524" d="M50.476,2.5H9.465A5.645,5.645,0,0,0,3.8,8.165V39.66a5.645,5.645,0,0,0,5.665,5.665h4.022L12.014,48.5a2.788,2.788,0,0,0,.34,2.946,2.905,2.905,0,0,0,2.776,1.076l3.285-.623,1.643,2.946a2.882,2.882,0,0,0,2.492,1.473h.113a2.907,2.907,0,0,0,2.492-1.643l4.022-8.553a4.373,4.373,0,0,0,.85.113,4.373,4.373,0,0,0,.85-.113L34.9,54.671a2.907,2.907,0,0,0,2.492,1.643H37.5A2.815,2.815,0,0,0,40,54.841L41.639,51.9l3.342.623a2.859,2.859,0,0,0,2.776-1.076A2.788,2.788,0,0,0,48.1,48.5l-1.473-3.172h4.022a5.681,5.681,0,0,0,5.665-5.665V8.165A5.866,5.866,0,0,0,50.476,2.5Zm-9.63,29.909h0A3.47,3.47,0,0,0,40,34.5l-.34,4.192a.15.15,0,0,1-.17.17l-4.192.34a3.615,3.615,0,0,0-2.1.85l-3.172,2.719a.172.172,0,0,1-.227,0l-3.172-2.719a3.47,3.47,0,0,0-2.1-.85l-4.192-.34a.15.15,0,0,1-.17-.17L19.944,34.5a3.615,3.615,0,0,0-.85-2.1l-2.719-3.172a.172.172,0,0,1,0-.227l2.719-3.172a3.47,3.47,0,0,0,.85-2.1l.34-4.192a.15.15,0,0,1,.17-.17l4.192-.34a3.615,3.615,0,0,0,2.1-.85l3.172-2.719c.057-.057.057-.057.113-.057s.057,0,.113.057l3.172,2.719a3.47,3.47,0,0,0,2.1.85l4.192.34a.15.15,0,0,1,.17.17l.34,4.192a3.615,3.615,0,0,0,.85,2.1l2.719,3.172a.172.172,0,0,1,0,.227ZM22.493,52.178l-1.3-2.322A2.882,2.882,0,0,0,18.7,48.383a1.568,1.568,0,0,0-.51.057l-2.606.51,3.285-6.967a3.414,3.414,0,0,0,1.3.34l4.248.34,1.813,1.529Zm19.26-3.8A2.893,2.893,0,0,0,38.694,49.8l-1.3,2.322-3.739-7.987,1.926-1.586,4.192-.34a4.9,4.9,0,0,0,1.3-.34l3.285,6.967ZM52.685,39.66a2.212,2.212,0,0,1-2.209,2.209H44.868l-1.7-3.625.283-3.455c0-.057,0-.057.057-.113L46.228,31.5a3.543,3.543,0,0,0,0-4.7l-2.776-3.285-.34-4.192a3.594,3.594,0,0,0-3.342-3.342l-4.248-.34-3.172-2.719a3.543,3.543,0,0,0-4.7,0l-3.342,2.719-4.192.34a3.594,3.594,0,0,0-3.342,3.342l-.34,4.248-2.719,3.172a3.543,3.543,0,0,0,0,4.7l2.776,3.285.283,3.455-1.7,3.625H9.408A2.212,2.212,0,0,1,7.2,39.6V8.165A2.212,2.212,0,0,1,9.408,5.955H50.476a2.212,2.212,0,0,1,2.209,2.209Z" fill="#ff4b0a"></path><path id="Pfad_525" data-name="Pfad 525" d="M50.778,40.78l-3.229-.623a1.171,1.171,0,0,1-.793-.566l-1.643-2.946a1.123,1.123,0,0,0-1.983,0L41.488,39.59a1.171,1.171,0,0,1-.793.566l-3.285.623a1.149,1.149,0,0,0-.623,1.869l2.266,2.436a1.045,1.045,0,0,1,.283.906l-.283,3.342a1.111,1.111,0,0,0,1.586,1.133l3-1.416a1.4,1.4,0,0,1,.963,0l3,1.416a1.111,1.111,0,0,0,1.586-1.133l-.4-3.342a1.045,1.045,0,0,1,.283-.906l2.266-2.436A1.08,1.08,0,0,0,50.778,40.78Z" transform="translate(-14.18 -14.545)" fill="#ff4b0a"></path></g></svg>