<svg xmlns="http://www.w3.org/2000/svg" width="46.225" height="61.554" viewBox="0 0 46.225 61.554"><g id="Gruppe_180" data-name="Gruppe 180" transform="translate(-14.35 -2.5)"><path id="Pfad_519" data-name="Pfad 519" d="M42.692,32.1A11.794,11.794,0,0,0,30.9,43.892a14.647,14.647,0,0,0,4.989,10.691,7.425,7.425,0,0,1,2.657,5.637v2.009a2,2,0,0,0,1.879,2.009,2.065,2.065,0,0,0,2.2-2.009V50.437a3.988,3.988,0,0,1,2.333-3.628l5.313-2.462a4.928,4.928,0,0,0,2.073-7.192A11.667,11.667,0,0,0,42.692,32.1Z" transform="translate(-5.827 -10.421)" fill="#ff4b0a"></path><path id="Pfad_520" data-name="Pfad 520" d="M62.057,45.633,57.78,39.089l-.194-.583A18.728,18.728,0,0,0,20.2,40.125a21.278,21.278,0,0,0,7.451,15.939.554.554,0,0,1,.194.389v9.784a3.131,3.131,0,0,0,2.916,3.175l14.643,1.3h.259a3.284,3.284,0,0,0,2.138-.842,3.245,3.245,0,0,0,1.037-2.333V61.507h4.276a4.549,4.549,0,0,0,4.536-4.536v-5.7h1.361a3.576,3.576,0,0,0,3.175-1.879A3.71,3.71,0,0,0,62.057,45.633Zm-3.045,2.138H56.485a2.3,2.3,0,0,0-2.268,2.268v6.868a1.161,1.161,0,0,1-1.166,1.166H47.932A2.49,2.49,0,0,0,45.4,60.6v6.674l-14.19-1.231v-9.59a3.975,3.975,0,0,0-1.425-2.981,18.2,18.2,0,0,1-6.22-13.348,15.32,15.32,0,0,1,30.583-1.361,5.139,5.139,0,0,0,.648,2.073l4.406,6.868A.238.238,0,0,1,59.012,47.771Z" transform="translate(-2.06 -6.654)" fill="#ff4b0a"></path><path id="Pfad_521" data-name="Pfad 521" d="M48.585,10.534A1.673,1.673,0,0,0,50.269,8.85V4.185a1.685,1.685,0,1,0-3.369,0v4.6A1.729,1.729,0,0,0,48.585,10.534Z" transform="translate(-11.46)" fill="#ff4b0a"></path><path id="Pfad_522" data-name="Pfad 522" d="M31.173,12.6a1.684,1.684,0,0,0,1.555,1.037,2.3,2.3,0,0,0,.648-.13,1.689,1.689,0,0,0,.907-2.2L32.534,7.031a1.685,1.685,0,1,0-3.11,1.3Z" transform="translate(-5.257 -1.226)" fill="#ff4b0a"></path><path id="Pfad_523" data-name="Pfad 523" d="M20.473,22.173a1.721,1.721,0,0,0,0-2.4l-3.24-3.24a1.7,1.7,0,1,0-2.4,2.4l3.24,3.24a1.77,1.77,0,0,0,1.231.518A1.742,1.742,0,0,0,20.473,22.173Z" transform="translate(0 -4.77)" fill="#ff4b0a"></path></g></svg>