<svg xmlns="http://www.w3.org/2000/svg" width="138" height="138" viewBox="0 0 138 138"><g id="Gruppe_119" data-name="Gruppe 119" transform="translate(-699.916 -5654.916)"><circle id="Ellipse_6" data-name="Ellipse 6" cx="69" cy="69" r="69" transform="translate(699.916 5654.916)" fill="#f5581e"></circle><g id="Gruppe_179" data-name="Gruppe 179" transform="translate(423.572 5140.882)"><g id="Gruppe_179-2" data-name="Gruppe 179" transform="translate(287.13 525.354)"><path id="Pfad_490" data-name="Pfad 490" d="M339.927,538.183a5.414,5.414,0,0,1-2.445-.8,5.732,5.732,0,0,1-1.69-1.753l1.269-1.034a4.152,4.152,0,0,0,1.237,1.39,3.943,3.943,0,0,0,1.863.617,3.008,3.008,0,0,0,1.839-.3,1.557,1.557,0,0,0,.81-1.261,1.8,1.8,0,0,0-.216-1.165,2.585,2.585,0,0,0-.8-.8,8.237,8.237,0,0,0-1.135-.617q-.627-.282-1.246-.608a5.642,5.642,0,0,1-1.129-.778,2.865,2.865,0,0,1-.767-1.1,3.447,3.447,0,0,1-.161-1.624,3.141,3.141,0,0,1,.7-1.756,3.359,3.359,0,0,1,1.521-1.007,4.807,4.807,0,0,1,2.046-.2,4.946,4.946,0,0,1,2.145.7,4.544,4.544,0,0,1,1.454,1.411l-1.268,1.033a4.037,4.037,0,0,0-1.1-1.093,3.22,3.22,0,0,0-1.431-.475,2.644,2.644,0,0,0-1.645.278,1.453,1.453,0,0,0-.721,1.171,1.515,1.515,0,0,0,.228,1.049,2.82,2.82,0,0,0,.8.746,9.866,9.866,0,0,0,1.147.617q.631.291,1.252.627a5.357,5.357,0,0,1,1.116.8,3.066,3.066,0,0,1,.763,1.16,3.617,3.617,0,0,1,.165,1.678,3.178,3.178,0,0,1-1.406,2.472A4.784,4.784,0,0,1,339.927,538.183Z" transform="translate(-277.161 -525.354)" fill="#fff"></path><path id="Pfad_491" data-name="Pfad 491" d="M345.3,538.835l4.285-11.788,1.6.581L346.9,539.416Zm1.087.394.531-1.46,6.759,2.458-.53,1.46Zm1.933-5.316.512-1.41,6.2,2.254-.513,1.41Zm1.821-5.01.531-1.461,6.676,2.427-.533,1.462Z" transform="translate(-275.213 -525.008)" fill="#fff"></path><path id="Pfad_492" data-name="Pfad 492" d="M354.206,542.491l6.456-10.755,1.457.876-6.456,10.752Z" transform="translate(-273.388 -524.047)" fill="#fff"></path><path id="Pfad_493" data-name="Pfad 493" d="M360.243,547.038l8.187-9.021,1.271,1.153-8.186,9.021Zm4.24-10.992,1.045-1.151,7.562,6.862-1.045,1.151Z" transform="translate(-272.152 -523.4)" fill="#fff"></path><path id="Pfad_494" data-name="Pfad 494" d="M365.351,551.361l10.517-6.834.927,1.427-10.518,6.832Zm.63.97,1.3-.847,3.919,6.033-1.3.846Zm4.744-3.082,1.257-.817,3.6,5.532-1.259.817Zm4.47-2.9,1.3-.846,3.868,5.956-1.3.847Z" transform="translate(-271.105 -521.426)" fill="#fff"></path><path id="Pfad_495" data-name="Pfad 495" d="M370.223,559.036l11.923-3.891.528,1.613-11.925,3.893Zm2.242,6.872,3.93-6.074,1.031,1.355-4.294,6.763Zm3.3-7.483,1.357-.443,1.054,3.23a2.357,2.357,0,0,0,1.058,1.433,2,2,0,0,0,1.625.087,2.047,2.047,0,0,0,1.243-1.023,2.238,2.238,0,0,0,.048-1.775l-1.06-3.247,1.41-.459,1.077,3.3a4.462,4.462,0,0,1,.206,2.119,3.357,3.357,0,0,1-.771,1.687,3.479,3.479,0,0,1-1.586,1.022,3.544,3.544,0,0,1-1.918.123,3.247,3.247,0,0,1-1.6-.913,4.593,4.593,0,0,1-1.066-1.84Z" transform="translate(-270.107 -519.251)" fill="#fff"></path><path id="Pfad_496" data-name="Pfad 496" d="M373.365,573.319l1.548.124-.281,3.477a4.808,4.808,0,0,0,.407,2.472,4.27,4.27,0,0,0,1.535,1.775,5.01,5.01,0,0,0,2.4.782,4.854,4.854,0,0,0,2.471-.4,4.359,4.359,0,0,0,1.789-1.5,4.765,4.765,0,0,0,.8-2.365l.28-3.458,1.551.124-.283,3.5a6.746,6.746,0,0,1-.672,2.493,6.048,6.048,0,0,1-3.568,3.084,6.719,6.719,0,0,1-4.964-.4,6.133,6.133,0,0,1-1.883-1.486,5.983,5.983,0,0,1-1.153-2.115,6.7,6.7,0,0,1-.265-2.551Zm.09-1.118,12.5,1.012-.139,1.692-12.5-1.01Z" transform="translate(-269.527 -515.757)" fill="#fff"></path><path id="Pfad_497" data-name="Pfad 497" d="M371.948,584.907l1.453.551-2.551,6.726-1.454-.551Zm.41-1.083,11.727,4.451-.6,1.588-11.727-4.45Zm4.879,3.089,1.4.531-2.34,6.168-1.4-.531Zm4.985,1.89,1.454.551L381.156,596l-1.453-.551Z" transform="translate(-270.276 -513.376)" fill="#fff"></path><path id="Pfad_498" data-name="Pfad 498" d="M366.615,595.075a5.41,5.41,0,0,1,1.87-1.763,5.731,5.731,0,0,1,2.351-.643l.3,1.609a4.131,4.131,0,0,0-1.813.422,3.926,3.926,0,0,0-1.435,1.336,3.012,3.012,0,0,0-.617,1.758,1.562,1.562,0,0,0,.718,1.318,1.822,1.822,0,0,0,1.128.369,2.618,2.618,0,0,0,1.084-.317,8.631,8.631,0,0,0,1.086-.7q.548-.416,1.133-.8a5.713,5.713,0,0,1,1.223-.617,2.9,2.9,0,0,1,1.34-.143,3.459,3.459,0,0,1,1.5.639,3.137,3.137,0,0,1,1.2,1.453,3.343,3.343,0,0,1,.154,1.817,4.825,4.825,0,0,1-.806,1.892,4.952,4.952,0,0,1-1.643,1.545,4.552,4.552,0,0,1-1.937.6l-.3-1.609a3.956,3.956,0,0,0,1.484-.436,3.211,3.211,0,0,0,1.1-1.03,2.648,2.648,0,0,0,.547-1.576,1.453,1.453,0,0,0-.683-1.193,1.507,1.507,0,0,0-1.03-.3,2.747,2.747,0,0,0-1.041.348,9.619,9.619,0,0,0-1.09.708c-.372.276-.757.543-1.152.8a5.236,5.236,0,0,1-1.241.593,3.1,3.1,0,0,1-1.383.114,3.629,3.629,0,0,1-1.552-.663,3.175,3.175,0,0,1-1.494-2.419A4.77,4.77,0,0,1,366.615,595.075Z" transform="translate(-271.052 -511.564)" fill="#fff"></path><path id="Pfad_499" data-name="Pfad 499" d="M362.8,599.627l8.869,8.869-1.2,1.2-8.869-8.869Z" transform="translate(-271.873 -510.138)" fill="#fff"></path><path id="Pfad_500" data-name="Pfad 500" d="M355.791,605.512a6.1,6.1,0,0,1,2.336-.884,6.2,6.2,0,0,1,2.435.1,6.537,6.537,0,0,1,4,2.907,6.446,6.446,0,0,1,.876,4.852,6.138,6.138,0,0,1-.989,2.246,6.872,6.872,0,0,1-4.538,2.749,5.612,5.612,0,0,1-2.675-.281l.369-1.621a3.859,3.859,0,0,0,2.037.287,4.935,4.935,0,0,0,2.051-.746,4.763,4.763,0,0,0,1.73-1.815,4.311,4.311,0,0,0,.487-2.316,5.586,5.586,0,0,0-2.676-4.23,4.47,4.47,0,0,0-2.265-.582,4.333,4.333,0,0,0-2.27.7,4.925,4.925,0,0,0-1.681,1.656,3.456,3.456,0,0,0-.46,2.051,5.311,5.311,0,0,0,.835,2.327l-1.277-.093,4.589-2.888.837,1.33-5.2,3.274-.135-.214a7.887,7.887,0,0,1-1.3-3.506,5.157,5.157,0,0,1,.627-3.01A6.447,6.447,0,0,1,355.791,605.512Z" transform="translate(-273.659 -509.129)" fill="#fff"></path><path id="Pfad_501" data-name="Pfad 501" d="M342.027,611.137l.953,1.677,2.663,10.344-1.646.424-3.125-12.147Zm0,0,10.015,8.024.357,2.259L342.367,613.4Zm8.4-2.16,3.125,12.146-1.155.3-.986-1.8-2.63-10.222Z" transform="translate(-276.12 -508.223)" fill="#fff"></path><path id="Pfad_502" data-name="Pfad 502" d="M332.216,615.046a1.755,1.755,0,0,1,.9.311,1.667,1.667,0,0,1,.566.69,1.788,1.788,0,0,1,.152.91,1.754,1.754,0,0,1-.972,1.452,1.735,1.735,0,0,1-.94.167,1.683,1.683,0,0,1-.889-.319,1.8,1.8,0,0,1-.559-.69,1.771,1.771,0,0,1-.152-.9,1.842,1.842,0,0,1,.3-.874,1.708,1.708,0,0,1,.666-.588A1.726,1.726,0,0,1,332.216,615.046Z" transform="translate(-278.283 -506.981)" fill="#fff"></path><path id="Pfad_503" data-name="Pfad 503" d="M324.25,609.323,322.2,622.353l-1.513-.771,1.743-10.591.435.22-7.493,7.664-1.1-.558,1.793-10.567.418.212-7.542,7.639-1.5-.763,9.332-9.322,1.08.549-1.76,10.543-.418-.213,7.476-7.63Z" transform="translate(-282.968 -508.932)" fill="#fff"></path><path id="Pfad_504" data-name="Pfad 504" d="M304.527,610.026l-1.11,1.088-4.974-5.071,1.11-1.087Zm3.806-3.734-1.07,1.051-4.619-4.71,1.07-1.049Zm4.85-3.134-8.956,8.782-1.189-1.213,8.955-8.782Zm-.811-.827-1.11,1.088-5.036-5.135,1.11-1.088Z" transform="translate(-284.812 -510.636)" fill="#fff"></path><path id="Pfad_505" data-name="Pfad 505" d="M306.068,595.2l-1.288.734-1.88-3.3a2.241,2.241,0,0,0-1.4-1.159,2.156,2.156,0,0,0-1.647.233,2.218,2.218,0,0,0-.823.782,2.036,2.036,0,0,0-.294,1.071,2.4,2.4,0,0,0,.345,1.207l1.9,3.329-1.287.734-1.774-3.109a2.092,2.092,0,0,0-1.136-1.026,1.765,1.765,0,0,0-1.465.22,1.715,1.715,0,0,0-.923,1.172,2.224,2.224,0,0,0,.327,1.54l1.736,3.046-1.288.734-1.763-3.092a4.3,4.3,0,0,1-.631-2,3.122,3.122,0,0,1,.4-1.659,3.086,3.086,0,0,1,1.171-1.157,2.939,2.939,0,0,1,1.812-.4,3.63,3.63,0,0,1,1.837.814l-.543.143a4.031,4.031,0,0,1,.2-2.289,3.287,3.287,0,0,1,1.463-1.615,3.364,3.364,0,0,1,1.8-.461,3.479,3.479,0,0,1,1.8.587,4.717,4.717,0,0,1,1.522,1.7Zm.563.988-10.9,6.211-.841-1.475,10.9-6.212Z" transform="translate(-285.974 -512.173)" fill="#fff"></path><path id="Pfad_506" data-name="Pfad 506" d="M301.65,586.792l-1.513.355-.8-3.4a4.8,4.8,0,0,0-1.143-2.229,4.251,4.251,0,0,0-2-1.219,5.006,5.006,0,0,0-2.528-.012,4.879,4.879,0,0,0-2.23,1.134,4.355,4.355,0,0,0-1.243,1.982,4.754,4.754,0,0,0-.039,2.5l.792,3.378-1.513.355-.8-3.415a6.74,6.74,0,0,1-.123-2.58,6.038,6.038,0,0,1,2.456-4.027,6.713,6.713,0,0,1,4.847-1.136,6.125,6.125,0,0,1,2.247.839,5.972,5.972,0,0,1,1.745,1.661,6.665,6.665,0,0,1,1.031,2.347Zm.255,1.092-12.213,2.86-.387-1.656,12.213-2.859Z" transform="translate(-286.862 -514.488)" fill="#fff"></path><path id="Pfad_507" data-name="Pfad 507" d="M299.658,576.237l-12.528-.613.083-1.7,12.528.613Zm-10.919-1.694-1.553-.075.348-7.1,1.553.078Zm5.324.263-1.5-.075.323-6.588,1.5.073Zm5.651.276-1.553-.075.353-7.185,1.553.076Z" transform="translate(-287.13 -516.746)" fill="#fff"></path><path id="Pfad_508" data-name="Pfad 508" d="M301.444,563.981a5.4,5.4,0,0,1-1.235,2.253,5.694,5.694,0,0,1-2.036,1.337l-.781-1.437a4.136,4.136,0,0,0,1.6-.96,3.94,3.94,0,0,0,.952-1.716,3,3,0,0,0,.043-1.863,1.554,1.554,0,0,0-1.088-1.029,1.808,1.808,0,0,0-1.187,0,2.6,2.6,0,0,0-.935.637,8.546,8.546,0,0,0-.814,1q-.394.562-.829,1.111a5.679,5.679,0,0,1-.975.965,2.879,2.879,0,0,1-1.229.551,3.447,3.447,0,0,1-1.625-.143,3.141,3.141,0,0,1-1.6-1.01,3.351,3.351,0,0,1-.707-1.681,4.8,4.8,0,0,1,.183-2.047,4.948,4.948,0,0,1,1.086-1.978,4.55,4.55,0,0,1,1.657-1.168l.78,1.437a3.992,3.992,0,0,0-1.277.876,3.21,3.21,0,0,0-.731,1.318,2.644,2.644,0,0,0-.033,1.669,1.457,1.457,0,0,0,1.018.924,1.5,1.5,0,0,0,1.074-.031,2.741,2.741,0,0,0,.882-.652,10.022,10.022,0,0,0,.818-1.011q.4-.569.849-1.114a5.225,5.225,0,0,1,1-.948,3.115,3.115,0,0,1,1.28-.536,3.675,3.675,0,0,1,1.681.151,3.188,3.188,0,0,1,2.17,1.841A4.785,4.785,0,0,1,301.444,563.981Z" transform="translate(-286.756 -518.912)" fill="#fff"></path><path id="Pfad_509" data-name="Pfad 509" d="M303.345,558.088l-11.163-5.718.775-1.511,11.164,5.717Z" transform="translate(-286.095 -520.129)" fill="#fff"></path><path id="Pfad_510" data-name="Pfad 510" d="M308.574,551a6.116,6.116,0,0,1-1.954,1.558,6.187,6.187,0,0,1-2.348.649,6.528,6.528,0,0,1-4.7-1.543,6.434,6.434,0,0,1-2.321-4.349,6.14,6.14,0,0,1,.252-2.44,6.885,6.885,0,0,1,3.477-4.007,5.61,5.61,0,0,1,2.633-.553l.146,1.654a3.886,3.886,0,0,0-2.028.353,4.938,4.938,0,0,0-1.723,1.339,4.748,4.748,0,0,0-1.09,2.257,4.282,4.282,0,0,0,.246,2.352,5.588,5.588,0,0,0,3.842,3.208,4.45,4.45,0,0,0,2.336-.141,4.339,4.339,0,0,0,1.945-1.365,4.9,4.9,0,0,0,1.092-2.092,3.434,3.434,0,0,0-.19-2.093,5.283,5.283,0,0,0-1.507-1.959l1.243-.3-3.482,4.156-1.2-1.01,3.946-4.711.194.164a7.832,7.832,0,0,1,2.312,2.939,5.147,5.147,0,0,1,.328,3.056A6.479,6.479,0,0,1,308.574,551Z" transform="translate(-285.062 -522.291)" fill="#fff"></path><path id="Pfad_511" data-name="Pfad 511" d="M312.855,546.43l-6.729-10.585,1.006-.639,1.494,1.406,5.663,8.908Zm7.321-4.654-12.005-4.531-1.039-2.037,12.021,4.522Zm0,0-1.425-1.3-5.732-9.012,1.434-.912,6.729,10.584Z" transform="translate(-283.238 -524.289)" fill="#fff"></path><path id="Pfad_512" data-name="Pfad 512" d="M326.279,533.336a1.774,1.774,0,0,1-.952-.02,1.693,1.693,0,0,1-.752-.483,1.8,1.8,0,0,1-.422-.821,1.748,1.748,0,0,1,.018-.913,1.78,1.78,0,0,1,.463-.768,1.725,1.725,0,0,1,.842-.446,1.671,1.671,0,0,1,.943.031,1.833,1.833,0,0,1,1.148,2.219,1.667,1.667,0,0,1-1.289,1.2Z" transform="translate(-279.556 -524.437)" fill="#fff"></path></g></g></g></svg>