<svg xmlns="http://www.w3.org/2000/svg" width="52.828" height="41.224" viewBox="0 0 52.828 41.224"><path id="Pfad_535" data-name="Pfad 535" d="M32.563-14.475a4.29,4.29,0,0,0,2.943-1.507l20.815-20.6q-1.34-1.268-4.9-1.268H12.9q-3.039,0-4.211,1.172l20.935,20.7A4.231,4.231,0,0,0,32.563-14.475ZM6.7-.479,23.615-17.2,6.651-33.927a7.891,7.891,0,0,0-.55,3.469V-4.043A7.61,7.61,0,0,0,6.7-.479Zm6.915,3.852H52.134q2.991,0,4.187-1.148L39.071-14.858l-1.579,1.6a7.189,7.189,0,0,1-4.929,2.3,7.13,7.13,0,0,1-4.929-2.3l-1.6-1.6L8.829,2.2Q10.192,3.374,13.614,3.374ZM58.355-.5a7.908,7.908,0,0,0,.574-3.541V-30.458a7.784,7.784,0,0,0-.526-3.4L41.487-17.2Z" transform="translate(-6.101 37.851)" fill="#eaeaea"></path></svg>