<svg xmlns="http://www.w3.org/2000/svg" width="67.016" height="44.048" viewBox="0 0 67.016 44.048"><path id="Pfad_534" data-name="Pfad 534" d="M13.614,4.761H41.392a4.772,4.772,0,0,1-.419-1.83A9.209,9.209,0,0,1,41.128.909H13.686a3.8,3.8,0,0,1-2.763-.945,3.758,3.758,0,0,1-.969-2.811V-31.654a3.8,3.8,0,0,1,.969-2.823,3.766,3.766,0,0,1,2.763-.957H54.958a3.775,3.775,0,0,1,2.751.957,3.772,3.772,0,0,1,.981,2.823v2.3a13.774,13.774,0,0,1,1.938.179,8.067,8.067,0,0,1,1.914.586v-3.278a7.5,7.5,0,0,0-1.878-5.551q-1.878-1.866-5.635-1.866H13.614a7.721,7.721,0,0,0-5.623,1.854Q6.1-35.578,6.1-31.869V-2.632a7.432,7.432,0,0,0,1.89,5.539A7.721,7.721,0,0,0,13.614,4.761Zm1.723-7.106H42.3a12.133,12.133,0,0,1,2.345-3.374,16.722,16.722,0,0,1,3.505-2.74,19.235,19.235,0,0,1,4.319-1.878,10.266,10.266,0,0,1-2.871-3.6,10.667,10.667,0,0,1-1.077-4.773,10.4,10.4,0,0,1,.873-4.354,10.642,10.642,0,0,1,2.464-3.505,9.645,9.645,0,0,1,3.553-2.141V-30a1.882,1.882,0,0,0-2.105-2.153H15.336A1.882,1.882,0,0,0,13.231-30V-4.5A1.882,1.882,0,0,0,15.336-2.345ZM47.11,4.761H70.2a3.434,3.434,0,0,0,2.141-.6,1.992,1.992,0,0,0,.778-1.675,7.293,7.293,0,0,0-1-3.505,12.567,12.567,0,0,0-2.883-3.445,14.981,14.981,0,0,0-4.558-2.62,18.519,18.519,0,0,0-12.035,0,15.143,15.143,0,0,0-4.57,2.62,12.291,12.291,0,0,0-2.883,3.445,7.359,7.359,0,0,0-.993,3.505,1.992,1.992,0,0,0,.778,1.675A3.434,3.434,0,0,0,47.11,4.761ZM58.666-11.149a6.136,6.136,0,0,0,3.4-1,7.537,7.537,0,0,0,2.512-2.728,7.845,7.845,0,0,0,.957-3.876,7.482,7.482,0,0,0-.957-3.78,7.211,7.211,0,0,0-2.524-2.632,6.379,6.379,0,0,0-3.385-.957,6.362,6.362,0,0,0-3.409.969A7.282,7.282,0,0,0,52.732-22.5a7.548,7.548,0,0,0-.957,3.792,7.729,7.729,0,0,0,.957,3.84,7.525,7.525,0,0,0,2.524,2.716A6.194,6.194,0,0,0,58.666-11.149Z" transform="translate(-6.101 39.286)" fill="#eaeaea"></path></svg>