<svg xmlns="http://www.w3.org/2000/svg" width="73.467" height="95.1" viewBox="0 0 73.467 95.1"><g id="Gruppe_183" data-name="Gruppe 183" transform="translate(-13.233 -2.5)"><path id="Pfad_530" data-name="Pfad 530" d="M84.4,49.4a7.333,7.333,0,0,0-4.2-2.1,7.739,7.739,0,0,0-2.1-6.4A8.076,8.076,0,0,0,74,38.8a4.1,4.1,0,0,0,.1-1.1,7.462,7.462,0,0,0-4.6-7l8.1-8.1A7.637,7.637,0,1,0,66.8,11.8L38.5,40.1A44.807,44.807,0,0,0,33.3,32a28.309,28.309,0,0,0-5.9-5.4,9.754,9.754,0,0,0-11.5,0,6.227,6.227,0,0,0-1.6,8.6l4.2,6.5a20.212,20.212,0,0,1,3.2,11.5l-.3,12.4A4.48,4.48,0,0,1,20,68.8l-5.7,5.7a2.477,2.477,0,0,0,0,3.4,2.414,2.414,0,0,0,3.4,0l5.7-5.7a9.683,9.683,0,0,0,2.8-6.5l.3-12.4a25.459,25.459,0,0,0-4-14.2l-4.2-6.5a1.48,1.48,0,0,1,.4-2.1,4.95,4.95,0,0,1,5.9,0A24.031,24.031,0,0,1,29.5,35a50.268,50.268,0,0,1,6,10.1,2.387,2.387,0,0,0,1.7,1.4,2.313,2.313,0,0,0,2.2-.7L70.1,15.1a2.828,2.828,0,1,1,4,4L50.8,42.7a7.556,7.556,0,0,0-2.1,6.9,13.94,13.94,0,0,1-5.9,15.1,2.533,2.533,0,0,0-.9,3.3A2.245,2.245,0,0,0,44,69.2a2.663,2.663,0,0,0,1.2-.3,18.743,18.743,0,0,0,8.6-13.6,6.9,6.9,0,0,0,2.5.4c.4,0,.8-.1,1.1-.1a8.49,8.49,0,0,0,2.1,4.1,7.478,7.478,0,0,0,5.4,2.2c.3,0,.6-.1,1-.1A7.333,7.333,0,0,0,68,66h0a8.389,8.389,0,0,0,2.8,1.8A118.069,118.069,0,0,1,58.4,82.1a12.939,12.939,0,0,1-12,3.4l-2.6-.6a2.518,2.518,0,0,0-2.2.6l-8,8a2.477,2.477,0,0,0,0,3.4,2.414,2.414,0,0,0,3.4,0l7-7,1.3.3a17.7,17.7,0,0,0,16.4-4.6A106.94,106.94,0,0,0,76.8,67.5a6.691,6.691,0,0,0,1.9-1.4l5.8-5.8a7.727,7.727,0,0,0,2.2-5.4A7.637,7.637,0,0,0,84.4,49.4Zm-26.2.7a2.828,2.828,0,0,1-4-4L64.5,35.8a2.837,2.837,0,0,1,4,0,2.973,2.973,0,0,1,.8,2,2.792,2.792,0,0,1-.8,2Zm8.6,6.2a2.828,2.828,0,0,1-4-4l7.9-7.9a2.709,2.709,0,0,1,2-.8,2.973,2.973,0,0,1,2,.8,2.837,2.837,0,0,1,0,4Zm14.2.6-5.8,5.8a2.828,2.828,0,0,1-4-4L77,52.9a2.837,2.837,0,0,1,4,0,2.973,2.973,0,0,1,.8,2A2.373,2.373,0,0,1,81,56.9Z" fill="#ff4b0a"></path><path id="Pfad_531" data-name="Pfad 531" d="M37,13.9a2.433,2.433,0,0,0,2.4-2.4V4.9a2.4,2.4,0,0,0-4.8,0v6.6A2.433,2.433,0,0,0,37,13.9Z" fill="#ff4b0a"></path><path id="Pfad_532" data-name="Pfad 532" d="M24.9,17.5a2.414,2.414,0,0,0,3.4,0,2.477,2.477,0,0,0,0-3.4L23.6,9.4a2.4,2.4,0,1,0-3.4,3.4Z" fill="#ff4b0a"></path><path id="Pfad_533" data-name="Pfad 533" d="M47.4,18.2a2.342,2.342,0,0,0,1.7-.7l4.7-4.7a2.4,2.4,0,0,0-3.4-3.4l-4.7,4.7a2.477,2.477,0,0,0,0,3.4A2.342,2.342,0,0,0,47.4,18.2Z" fill="#ff4b0a"></path></g></svg>