<svg xmlns="http://www.w3.org/2000/svg" width="162.386" height="26.432" viewBox="0 0 162.386 26.432"><g id="Gruppe_177" data-name="Gruppe 177" transform="translate(-140.252 -82.672)"><path id="Pfad_489" data-name="Pfad 489" d="M6.454.35A9,9,0,0,1,4.088.035,9.042,9.042,0,0,1,1.939-.847,6.906,6.906,0,0,1,.252-2.184L2.674-4.648a4.716,4.716,0,0,0,1.61,1.141,5.031,5.031,0,0,0,2.016.4,2.466,2.466,0,0,0,1.155-.217.679.679,0,0,0,.4-.623.838.838,0,0,0-.483-.77,5.617,5.617,0,0,0-1.239-.469q-.756-.2-1.6-.462a7.549,7.549,0,0,1-1.6-.707A3.5,3.5,0,0,1,1.694-7.6a3.906,3.906,0,0,1-.476-2.037,3.9,3.9,0,0,1,.672-2.275,4.47,4.47,0,0,1,1.9-1.526,7.026,7.026,0,0,1,2.9-.553,8.481,8.481,0,0,1,3.2.6,5.643,5.643,0,0,1,2.4,1.785L9.856-9.142a3.669,3.669,0,0,0-1.442-1.071,4.251,4.251,0,0,0-1.568-.315,2.136,2.136,0,0,0-1.085.217.667.667,0,0,0-.357.6.763.763,0,0,0,.476.686,5.762,5.762,0,0,0,1.232.448q.756.2,1.589.469a6.979,6.979,0,0,1,1.589.756,3.811,3.811,0,0,1,1.232,1.281A4.006,4.006,0,0,1,12-4,3.828,3.828,0,0,1,10.5-.826,6.38,6.38,0,0,1,6.454.35ZM21.028.308A8.251,8.251,0,0,1,17.1-.6a6.828,6.828,0,0,1-2.695-2.527,6.949,6.949,0,0,1-.98-3.675,6.965,6.965,0,0,1,.959-3.647A6.966,6.966,0,0,1,17-12.985a7.463,7.463,0,0,1,3.717-.931,7.112,7.112,0,0,1,3.563.875,6.355,6.355,0,0,1,2.429,2.415,6.943,6.943,0,0,1,.882,3.514,7.623,7.623,0,0,1-.042.784A8.636,8.636,0,0,1,27.4-5.4l-11.732.042V-8.3l9.912-.042L23.73-7.1a5.159,5.159,0,0,0-.371-1.953,2.573,2.573,0,0,0-.994-1.183,3,3,0,0,0-1.617-.406,3.243,3.243,0,0,0-1.75.462,3.01,3.01,0,0,0-1.141,1.309,4.748,4.748,0,0,0-.4,2.037,4.6,4.6,0,0,0,.427,2.065A3.016,3.016,0,0,0,19.11-3.451a3.782,3.782,0,0,0,1.9.455,4.635,4.635,0,0,0,1.82-.343,3.921,3.921,0,0,0,1.428-1.043L26.614-2.03A6.414,6.414,0,0,1,24.178-.28,8.2,8.2,0,0,1,21.028.308ZM29.652,0V-13.608h4.284V0Zm2.142-15.484a2.2,2.2,0,0,1-1.652-.679,2.311,2.311,0,0,1-.658-1.673,2.311,2.311,0,0,1,.658-1.673,2.2,2.2,0,0,1,1.652-.679,2.193,2.193,0,0,1,1.666.679,2.339,2.339,0,0,1,.644,1.673,2.339,2.339,0,0,1-.644,1.673A2.193,2.193,0,0,1,31.794-15.484ZM38.892,0V-19.236h4.284V0Zm-3.08-9.968v-3.64H46.256v3.64ZM54.558.308A8.251,8.251,0,0,1,50.631-.6a6.827,6.827,0,0,1-2.695-2.527,6.949,6.949,0,0,1-.98-3.675,6.965,6.965,0,0,1,.959-3.647,6.966,6.966,0,0,1,2.618-2.534,7.463,7.463,0,0,1,3.717-.931,7.112,7.112,0,0,1,3.563.875,6.355,6.355,0,0,1,2.429,2.415,6.943,6.943,0,0,1,.882,3.514,7.623,7.623,0,0,1-.042.784,8.635,8.635,0,0,1-.154.924L49.2-5.362V-8.3l9.912-.042L57.26-7.1a5.159,5.159,0,0,0-.371-1.953,2.573,2.573,0,0,0-.994-1.183,3,3,0,0,0-1.617-.406,3.243,3.243,0,0,0-1.75.462,3.01,3.01,0,0,0-1.141,1.309,4.748,4.748,0,0,0-.4,2.037,4.6,4.6,0,0,0,.427,2.065A3.016,3.016,0,0,0,52.64-3.451a3.782,3.782,0,0,0,1.9.455,4.635,4.635,0,0,0,1.82-.343,3.921,3.921,0,0,0,1.428-1.043L60.144-2.03A6.414,6.414,0,0,1,57.708-.28,8.2,8.2,0,0,1,54.558.308ZM63.182,0V-13.608h4.284V0Zm4.284-7.462-1.806-1.4a7.573,7.573,0,0,1,1.806-3.71,4.626,4.626,0,0,1,3.486-1.316,4.71,4.71,0,0,1,1.729.294,3.46,3.46,0,0,1,1.309.91l-2.548,3.22a1.806,1.806,0,0,0-.695-.469,2.633,2.633,0,0,0-.957-.161,2.242,2.242,0,0,0-1.694.655A2.753,2.753,0,0,0,67.466-7.462ZM86.716.28a6.4,6.4,0,0,1-3.429-.924,6.511,6.511,0,0,1-2.352-2.52,7.569,7.569,0,0,1-.855-3.63,7.624,7.624,0,0,1,.854-3.647,6.508,6.508,0,0,1,2.349-2.524,6.4,6.4,0,0,1,3.433-.924,5.907,5.907,0,0,1,2.527.532,5.053,5.053,0,0,1,1.876,1.47,3.913,3.913,0,0,1,.833,2.142V-4a4.124,4.124,0,0,1-.826,2.177A5.148,5.148,0,0,1,89.25-.287,5.643,5.643,0,0,1,86.716.28Zm.756-3.864a3.043,3.043,0,0,0,1.6-.408,2.87,2.87,0,0,0,1.064-1.134A3.515,3.515,0,0,0,90.524-6.8a3.518,3.518,0,0,0-.381-1.674A2.874,2.874,0,0,0,89.079-9.61a3,3,0,0,0-1.586-.414,3,3,0,0,0-1.588.416A3,3,0,0,0,84.82-8.467a3.388,3.388,0,0,0-.4,1.663,3.463,3.463,0,0,0,.391,1.665A2.891,2.891,0,0,0,85.9-4,3.024,3.024,0,0,0,87.472-3.584ZM94.556,0H90.342V-3.654l.644-3.318-.714-3.29V-20.328h4.284Zm9.73.308a8.251,8.251,0,0,1-3.927-.91,6.827,6.827,0,0,1-2.695-2.527,6.949,6.949,0,0,1-.98-3.675,6.965,6.965,0,0,1,.959-3.647,6.966,6.966,0,0,1,2.618-2.534,7.463,7.463,0,0,1,3.717-.931,7.112,7.112,0,0,1,3.563.875,6.355,6.355,0,0,1,2.429,2.415,6.943,6.943,0,0,1,.882,3.514,7.621,7.621,0,0,1-.042.784,8.636,8.636,0,0,1-.154.924l-11.732.042V-8.3l9.912-.042L106.988-7.1a5.159,5.159,0,0,0-.371-1.953,2.573,2.573,0,0,0-.994-1.183,3,3,0,0,0-1.617-.406,3.243,3.243,0,0,0-1.75.462,3.01,3.01,0,0,0-1.141,1.309,4.748,4.748,0,0,0-.4,2.037,4.605,4.605,0,0,0,.427,2.065,3.016,3.016,0,0,0,1.225,1.316,3.782,3.782,0,0,0,1.9.455,4.635,4.635,0,0,0,1.82-.343,3.921,3.921,0,0,0,1.428-1.043l2.352,2.352a6.414,6.414,0,0,1-2.436,1.75A8.2,8.2,0,0,1,104.286.308ZM117.852.35a9,9,0,0,1-2.366-.315,9.042,9.042,0,0,1-2.149-.882,6.906,6.906,0,0,1-1.687-1.337l2.422-2.464a4.716,4.716,0,0,0,1.61,1.141,5.031,5.031,0,0,0,2.016.4,2.466,2.466,0,0,0,1.155-.217.679.679,0,0,0,.4-.623.838.838,0,0,0-.483-.77,5.617,5.617,0,0,0-1.239-.469q-.756-.2-1.6-.462a7.549,7.549,0,0,1-1.6-.707A3.5,3.5,0,0,1,113.092-7.6a3.906,3.906,0,0,1-.476-2.037,3.9,3.9,0,0,1,.672-2.275,4.47,4.47,0,0,1,1.9-1.526,7.026,7.026,0,0,1,2.9-.553,8.481,8.481,0,0,1,3.2.6,5.643,5.643,0,0,1,2.4,1.785l-2.436,2.464a3.669,3.669,0,0,0-1.442-1.071,4.251,4.251,0,0,0-1.568-.315,2.136,2.136,0,0,0-1.085.217.667.667,0,0,0-.357.6.763.763,0,0,0,.476.686,5.762,5.762,0,0,0,1.232.448q.756.2,1.589.469a6.979,6.979,0,0,1,1.589.756,3.811,3.811,0,0,1,1.232,1.281A4.006,4.006,0,0,1,123.4-4a3.828,3.828,0,0,1-1.5,3.178A6.38,6.38,0,0,1,117.852.35ZM125.72,0V-13.608H130V0Zm2.142-15.484a2.2,2.2,0,0,1-1.652-.679,2.311,2.311,0,0,1-.658-1.673,2.311,2.311,0,0,1,.658-1.673,2.2,2.2,0,0,1,1.652-.679,2.193,2.193,0,0,1,1.666.679,2.339,2.339,0,0,1,.644,1.673,2.339,2.339,0,0,1-.644,1.673A2.193,2.193,0,0,1,127.862-15.484ZM138.782,6.1a9.387,9.387,0,0,1-3.92-.77,6.428,6.428,0,0,1-2.674-2.17L134.82.546a5.218,5.218,0,0,0,1.638,1.309,4.872,4.872,0,0,0,2.2.455,3.7,3.7,0,0,0,2.5-.791A2.773,2.773,0,0,0,142.072-.7V-4.172l.714-2.968-.644-2.968v-3.5h4.214v12.8a6.67,6.67,0,0,1-.98,3.647,6.657,6.657,0,0,1-2.688,2.408A8.56,8.56,0,0,1,138.782,6.1Zm-.2-6.524a6.275,6.275,0,0,1-3.325-.889,6.285,6.285,0,0,1-2.3-2.429,7.092,7.092,0,0,1-.833-3.43,7,7,0,0,1,.833-3.423,6.325,6.325,0,0,1,2.3-2.408,6.275,6.275,0,0,1,3.325-.889,5.82,5.82,0,0,1,2.513.525,4.6,4.6,0,0,1,1.792,1.456,4.152,4.152,0,0,1,.777,2.163v5.18a4.139,4.139,0,0,1-.784,2.156,4.63,4.63,0,0,1-1.8,1.463A5.787,5.787,0,0,1,138.586-.42Zm.812-3.794a2.98,2.98,0,0,0,1.554-.392,2.694,2.694,0,0,0,1.015-1.057,3.131,3.131,0,0,0,.357-1.505,3.131,3.131,0,0,0-.357-1.5,2.709,2.709,0,0,0-1.008-1.057,2.943,2.943,0,0,0-1.547-.392,2.99,2.99,0,0,0-1.547.392,2.717,2.717,0,0,0-1.029,1.064,3.094,3.094,0,0,0-.364,1.5,3.077,3.077,0,0,0,.364,1.477,2.768,2.768,0,0,0,1.022,1.078A2.912,2.912,0,0,0,139.4-4.214ZM158.354,0V-7.742a2.323,2.323,0,0,0-.658-1.729,2.284,2.284,0,0,0-1.676-.651,2.521,2.521,0,0,0-1.23.294,2.094,2.094,0,0,0-.838.833,2.527,2.527,0,0,0-.3,1.253l-1.666-.812a5.417,5.417,0,0,1,.707-2.807,4.907,4.907,0,0,1,1.951-1.862,5.892,5.892,0,0,1,2.821-.665,5,5,0,0,1,2.661.714,5.216,5.216,0,0,1,1.841,1.89,5.1,5.1,0,0,1,.672,2.576V0Zm-8.988,0V-13.608h4.284V0Z" transform="translate(140 103)" fill="#1a2833"></path><circle id="Ellipse_7" data-name="Ellipse 7" cx="3" cy="3" r="3" transform="translate(212 98)" fill="#ff4c0a"></circle></g></svg>