<svg xmlns="http://www.w3.org/2000/svg" width="45.486" height="57.397" viewBox="0 0 45.486 57.397"><path id="Pfad_526" data-name="Pfad 526" d="M48.409,13.9H77.677a8.149,8.149,0,0,1,8.109,8.109V52.93a8.149,8.149,0,0,1-8.109,8.109H61.4l-9.233,9.536-.087.067a3.141,3.141,0,0,1-1.932.656,3.24,3.24,0,0,1-3.226-2.85l-.007-.06-.272-7.551a8.242,8.242,0,0,1-4.1-2.324A8.028,8.028,0,0,1,40.3,52.93V22.009A8.149,8.149,0,0,1,48.409,13.9ZM77.677,58.039a5.149,5.149,0,0,0,5.109-5.109V22.009A5.149,5.149,0,0,0,77.677,16.9H48.409A5.149,5.149,0,0,0,43.3,22.009V52.93a5.132,5.132,0,0,0,4.894,5.112l1.35.09.36,10c.042.163.239.167.241.167a.177.177,0,0,0,.056-.008l9.925-10.25ZM57.614,26.882a7.953,7.953,0,0,1,5.428,2.212,7.673,7.673,0,0,1,5.429-2.212A7.953,7.953,0,0,1,73.9,29.1l.035.034a7.516,7.516,0,0,1,2.2,5.407,7.727,7.727,0,0,1-2.278,5.448l-9.048,9.048a2.5,2.5,0,0,1-1.779.734,2.727,2.727,0,0,1-1.737-.643l-.055-.046L52.3,40.062a7.877,7.877,0,0,1-2.325-5.387,7.618,7.618,0,0,1,2.056-5.429l.035-.036A7.807,7.807,0,0,1,57.614,26.882Zm3.363,4.388a4.963,4.963,0,0,0-3.363-1.388,4.64,4.64,0,0,0-3.188,8.061l0,0,8.574,8.65,8.733-8.733a4.745,4.745,0,0,0,1.4-3.345,4.539,4.539,0,0,0-1.3-3.25,4.962,4.962,0,0,0-3.362-1.387,4.693,4.693,0,0,0-3.345,1.37l-2.083,2.083Z" transform="translate(-40.3 -13.9)" fill="#ff4b0a"></path></svg>