<svg xmlns="http://www.w3.org/2000/svg" width="39.502" height="39.572" viewBox="0 0 39.502 39.572"><path id="Icon_feather-phone-call" data-name="Icon feather-phone-call" d="M25.679,8.46a8.7,8.7,0,0,1,6.873,6.873M25.679,1.5A15.659,15.659,0,0,1,39.511,15.315M37.771,29.2v5.22a3.48,3.48,0,0,1-3.793,3.48,34.432,34.432,0,0,1-15.015-5.341A33.928,33.928,0,0,1,8.523,22.118,34.432,34.432,0,0,1,3.182,7.033,3.48,3.48,0,0,1,6.644,3.24h5.22a3.48,3.48,0,0,1,3.48,2.993,22.34,22.34,0,0,0,1.218,4.889,3.48,3.48,0,0,1-.783,3.671L13.569,17A27.838,27.838,0,0,0,24.008,27.442l2.21-2.21a3.48,3.48,0,0,1,3.671-.783,22.34,22.34,0,0,0,4.889,1.218A3.48,3.48,0,0,1,37.771,29.2Z" transform="translate(-1.667 0.156)" fill="none" stroke="#ff4c0a" stroke-linecap="round" stroke-linejoin="round" stroke-width="3"></path></svg>