<svg xmlns="http://www.w3.org/2000/svg" width="53.759" height="53.722" viewBox="0 0 53.759 53.722"><g id="Icon_ionic-ios-rocket" data-name="Icon ionic-ios-rocket" transform="translate(-1.366 -1.372)"><path id="Pfad_526" data-name="Pfad 526" d="M49.941,1.372a12.76,12.76,0,0,1,3,.324,2.524,2.524,0,0,1,1.872,1.893l0,.011c.853,3.717-.081,9.379-2.562,15.535A54.636,54.636,0,0,1,47.9,27.665a42.191,42.191,0,0,1-5.867,7.458A38.055,38.055,0,0,1,38,38.636,15.862,15.862,0,0,1,36.858,45.6a14.753,14.753,0,0,1-7.078,7.2,23.885,23.885,0,0,1-7,2.247,3.107,3.107,0,0,1-.508.042,3.073,3.073,0,0,1-3.05-3.39l0-.016.834-7.592-.172-.019a4.184,4.184,0,0,1-2.528-1.208L13.6,39.113a4.184,4.184,0,0,1-1.208-2.528q-.01-.086-.02-.184l-7.619.836a3.131,3.131,0,0,1-.315.016,3.07,3.07,0,0,1-3.032-3.578,24.126,24.126,0,0,1,2.258-6.993,14.8,14.8,0,0,1,7.2-7.078l.006,0a15.224,15.224,0,0,1,6.1-1.15c.292,0,.59.006.892.019a38.337,38.337,0,0,1,3.513-4.022A48.173,48.173,0,0,1,35.517,5.084C40.8,2.725,46.057,1.372,49.941,1.372ZM51.07,5.427a10.893,10.893,0,0,0-1.128-.055c-6.542,0-18.721,4.888-25.737,11.9a33.381,33.381,0,0,0-3.735,4.41l-.665.948-1.153-.1c-.578-.052-1.143-.079-1.681-.079a11.287,11.287,0,0,0-4.5.816c-4.463,1.965-6.216,6.9-6.88,9.854l10.634-1.167.028,2.2a19.548,19.548,0,0,0,.118,1.983l0,.041a.182.182,0,0,0,.057.1l3.755,3.755a.182.182,0,0,0,.1.057l.041,0a19.465,19.465,0,0,0,1.971.118l2.2.029L23.338,50.875c2.953-.652,7.892-2.389,9.855-6.874a12.766,12.766,0,0,0,.748-6.166l-.1-1.148.944-.661a33.4,33.4,0,0,0,4.421-3.735l0,0a45.059,45.059,0,0,0,9.333-14.647A38.876,38.876,0,0,0,50.8,10.07,17.162,17.162,0,0,0,51.07,5.427ZM36.962,12.448a7.114,7.114,0,1,1-5.026,2.084A7.062,7.062,0,0,1,36.962,12.448Zm0,10.219a3.109,3.109,0,1,0-2.2-.912A3.088,3.088,0,0,0,36.962,22.667Z" transform="translate(0)" fill="#ff4b0a"></path><path id="Pfad_527" data-name="Pfad 527" d="M11.367,21.345a3.138,3.138,0,0,1,2.046,1.031c.393.342.911.822,1.5,1.389,1.144,1.1,2.408,2.391,3.219,3.283.848.933,1.462,1.607,1.367,2.619l-.006.056a7.425,7.425,0,0,1-2.138,4.388c-1.223,1.223-3.519,2.058-7.019,2.551a43.79,43.79,0,0,1-4.5.39l-2.1.053L3.787,35a43.676,43.676,0,0,1,.39-4.492c.493-3.5,1.328-5.789,2.551-7.012a7.526,7.526,0,0,1,4.383-2.137h0l.125-.016Zm3.994,8.6c-1-1.122-3.339-3.459-4.458-4.453a3.5,3.5,0,0,0-1.346.835c-.089.089-.888.981-1.419,4.743-.092.653-.161,1.284-.212,1.845.574-.052,1.22-.122,1.886-.217,3.738-.531,4.624-1.325,4.713-1.414A3.456,3.456,0,0,0,15.361,29.943Z" transform="translate(1.697 13.995)" fill="#ff4b0a"></path></g></svg>